<?xml version="1.0" encoding="UTF-8"?>
<svg id="Layer_1" xmlns="http://www.w3.org/2000/svg" version="1.1" viewBox="0 0 512 512">
  <!-- Generator: Adobe Illustrator 29.5.1, SVG Export Plug-In . SVG Version: 2.1.0 Build 141)  -->
  <defs>
    <style>
      .st0 {
        fill: #fdd500;
      }

      .st1 {
        fill: #d8d8d8;
      }
    </style>
  </defs>
  <path class="st1" d="M417.4,106.8H94.6L24,230.3l232,281.7,232-281.7-70.6-123.6h0ZM311.9,244l-55.9,190-55.9-190h111.8ZM209.4,213.5l46.6-65.3,46.6,65.3h-93.2ZM285.6,137.3h93.2l-46.6,65.3-46.6-65.3h0ZM179.7,202.5l-46.6-65.3h93.2l-46.6,65.3h0ZM150.1,213.5h-81.3l36.2-63.3,45.2,63.3h0ZM168.3,244l52,176.7L74.8,244h93.5ZM343.7,244h93.5l-145.5,176.7,52-176.7h0ZM361.9,213.5l45.2-63.3,36.2,63.3h-81.4Z"/>
  <path class="st0" d="M240.7,0h30.5v61h-30.5V0h0Z"/>
  <path class="st0" d="M141.1,28.7l21.6-21.6,43.1,43.1-21.6,21.6s-43.1-43.1-43.1-43.1Z"/>
  <path class="st0" d="M308.8,50.2l43.1-43.1,21.6,21.6-43.1,43.1s-21.6-21.6-21.6-21.6Z"/>
</svg>