<?xml version="1.0" encoding="UTF-8"?>
<svg id="Capa_1" xmlns="http://www.w3.org/2000/svg" version="1.1" viewBox="0 0 512 512">
  <!-- Generator: Adobe Illustrator 29.5.1, SVG Export Plug-In . SVG Version: 2.1.0 Build 141)  -->
  <defs>
    <style>
      .st0 {
        fill: #fdd500;
      }
    </style>
  </defs>
  <path d="M401.2,326.9c31.4-34.7,50.5-80.7,50.5-131.1C451.8,87.8,363.9,0,256,0S60.2,87.8,60.2,195.8s19.1,96.4,50.5,131.1l-63.6,109.9,84,5,46.3,70.2,69.8-120.7c2.9.1,5.8.2,8.7.2s5.8,0,8.7-.2l69.8,120.7,46.3-70.2,84-5-63.6-109.9ZM175.8,455l-27.9-42.2-50.5-3,35.7-61.7c23.5,19,51.4,32.6,81.9,39.1l-39.2,67.8ZM90.2,195.8c0-91.4,74.4-165.8,165.8-165.8s165.8,74.4,165.8,165.8-74.4,165.8-165.8,165.8-165.8-74.4-165.8-165.8h0ZM364.1,412.8l-27.9,42.2-39.2-67.8c30.5-6.5,58.4-20.2,81.9-39.1l35.7,61.7-50.5,3Z"/>
  <path class="st0" d="M372.3,147.6l-11.2-56.9-56.9-11.2-48.2-32.3-48.2,32.3-56.9,11.2-11.2,56.9-32.3,48.2,32.3,48.2,11.2,56.9,56.9,11.2,48.2,32.3,48.2-32.3,56.9-11.2,11.2-56.9,32.3-48.2-32.3-48.1ZM344,232.2l-8.5,43.1-43.1,8.5-36.4,24.5-36.4-24.5-43.1-8.5-8.5-43.1-24.5-36.4,24.5-36.4,8.5-43.1,43.1-8.5,36.4-24.5,36.4,24.5,43.1,8.5,8.5,43.1,24.5,36.4-24.5,36.4Z"/>
  <path class="st0" d="M321.8,156.6l-36.2-5.3-16.2-32.8h-26.9l-16.2,32.8-36.2,5.3-8.3,25.6,26.2,25.5-6.2,36,21.8,15.8,32.3-17,32.3,17,21.8-15.8-6.2-36,26.2-25.5-8.3-25.6ZM275.4,218.9l-19.4-10.2-19.4,10.2,3.7-21.6-15.7-15.3,21.7-3.2,9.7-19.7,9.7,19.7,21.7,3.2-15.7,15.3,3.7,21.6Z"/>
</svg>