<?xml version="1.0" encoding="UTF-8"?>
<svg id="Capa_1" xmlns="http://www.w3.org/2000/svg" version="1.1" viewBox="0 0 512 512">
  <!-- Generator: Adobe Illustrator 29.5.1, SVG Export Plug-In . SVG Version: 2.1.0 Build 141)  -->
  <defs>
    <style>
      .st0 {
        fill: #fdd500;
      }
    </style>
  </defs>
  <g>
    <g>
      <g>
        <path d="M235.3,183.4c-12,0-23.3-4.7-31.8-13.2l-42.4-42.4c-8.5-8.5-13.2-19.8-13.2-31.8s4.7-23.3,13.2-31.8,19.8-13.2,31.8-13.2,23.3,4.7,31.8,13.2l42.4,42.4c8.5,8.5,13.2,19.8,13.2,31.8s-4.7,23.3-13.2,31.8h0c-8.5,8.5-19.8,13.2-31.8,13.2ZM192.9,80.9c-4,0-7.8,1.6-10.6,4.4-2.8,2.8-4.4,6.6-4.4,10.6s1.6,7.8,4.4,10.6l42.4,42.4c2.8,2.8,6.6,4.4,10.6,4.4s7.8-1.6,10.6-4.4h0c2.8-2.8,4.4-6.6,4.4-10.6s-1.6-7.8-4.4-10.6l-42.4-42.4c-2.8-2.8-6.6-4.4-10.6-4.4Z"/>
        <path d="M192.9,225.8c-12,0-23.3-4.7-31.8-13.2l-31.8-31.8c-8.5-8.5-13.2-19.8-13.2-31.8s4.7-23.3,13.2-31.8c8.5-8.5,19.8-13.2,31.8-13.2s23.3,4.7,31.8,13.2l31.8,31.8c8.5,8.5,13.2,19.8,13.2,31.8s-4.7,23.3-13.2,31.8c-8.5,8.5-19.8,13.2-31.8,13.2ZM161.1,134c-4,0-7.8,1.6-10.6,4.4-2.8,2.8-4.4,6.6-4.4,10.6s1.6,7.8,4.4,10.6l31.8,31.8c2.8,2.8,6.6,4.4,10.6,4.4s7.8-1.6,10.6-4.4c2.8-2.8,4.4-6.6,4.4-10.6s-1.6-7.8-4.4-10.6l-31.8-31.8c-2.8-2.8-6.6-4.4-10.6-4.4Z"/>
        <path d="M150.5,268.2c-12,0-23.3-4.7-31.8-13.2l-21.2-21.2c-8.5-8.5-13.2-19.8-13.2-31.8s4.7-23.3,13.2-31.8c8.5-8.5,19.8-13.2,31.8-13.2s23.3,4.7,31.8,13.2l21.2,21.2c8.5,8.5,13.2,19.8,13.2,31.8s-4.7,23.3-13.2,31.8h0s0,0,0,0c-8.5,8.5-19.8,13.2-31.8,13.2ZM129.2,187c-4,0-7.8,1.6-10.6,4.4s-4.4,6.6-4.4,10.6,1.6,7.8,4.4,10.6l21.2,21.2c2.8,2.8,6.6,4.4,10.6,4.4s7.8-1.6,10.6-4.4h0c2.8-2.8,4.4-6.6,4.4-10.6s-1.6-7.8-4.4-10.6l-21.2-21.2c-2.8-2.8-6.6-4.4-10.6-4.4Z"/>
        <path d="M108,310.6c-12,0-23.3-4.7-31.8-13.2l-10.6-10.6c-8.5-8.5-13.2-19.8-13.2-31.8s4.7-23.3,13.2-31.8c8.5-8.5,19.8-13.2,31.8-13.2s23.3,4.7,31.8,13.2l10.6,10.6c8.5,8.5,13.2,19.8,13.2,31.8s-4.7,23.3-13.2,31.8h0c-8.5,8.5-19.8,13.2-31.8,13.2ZM97.4,240c-4,0-7.8,1.6-10.6,4.4-2.8,2.8-4.4,6.6-4.4,10.6s1.6,7.8,4.4,10.6l10.6,10.6c2.8,2.8,6.6,4.4,10.6,4.4s7.8-1.6,10.6-4.4c2.8-2.8,4.4-6.6,4.4-10.6s-1.6-7.8-4.4-10.6l-10.6-10.6c-2.8-2.8-6.6-4.4-10.6-4.4Z"/>
        <rect x="286.1" y="107.4" width="15" height="30" transform="translate(-.6 243.5) rotate(-45)"/>
        <rect x="328.6" y="149.9" width="15" height="30" transform="translate(-18.2 285.9) rotate(-45)"/>
        <rect x="371" y="192.3" width="15" height="30" transform="translate(-35.7 328.4) rotate(-45)"/>
      </g>
      <polygon points="139.6 512 11.3 383.6 118.6 276.2 139.8 297.5 53.7 383.6 139.6 469.5 231.6 377 252.8 398.1 139.6 512"/>
      <polygon points="375.5 511.8 261.5 397.8 282.7 376.6 375.5 469.4 460.3 384.6 373.2 297.5 394.4 276.2 502.7 384.6 375.5 511.8"/>
    </g>
    <path d="M256.5,404.2c-19.2,0-38.4-7.3-53-21.9l-8.3-8.3,21.2-21.2,8.3,8.3c17.5,17.5,46.1,17.5,63.6,0l127.3-127.3c2.8-2.8,4.4-6.6,4.4-10.6s-1.6-7.8-4.4-10.6c-2.8-2.8-6.6-4.4-10.6-4.4s-7.8,1.6-10.6,4.4l-21.2-21.2c5.8-5.8,5.8-15.4,0-21.2-5.8-5.8-15.4-5.8-21.2,0l-21.2-21.2c2.8-2.8,4.4-6.6,4.4-10.6s-1.6-7.8-4.4-10.6-6.6-4.4-10.6-4.4-7.8,1.6-10.6,4.4l-21.2-21.2c5.8-5.8,5.8-15.4,0-21.2-5.8-5.8-15.4-5.8-21.2,0l-21.2,21.2-21.2-21.2,21.2-21.2c17.5-17.5,46.1-17.5,63.6,0s12.5,18.6,13.1,29.3c11.1.6,21.4,5.2,29.3,13.1,8.1,8.1,12.5,18.7,13.1,29.3,10.7.6,21.2,4.9,29.3,13.1,8.1,8.1,12.5,18.6,13.1,29.3,11.1.6,21.4,5.2,29.3,13.1,8.5,8.5,13.2,19.8,13.2,31.8s-4.7,23.3-13.2,31.8l-127.3,127.3c-14.6,14.6-33.8,21.9-53,21.9Z"/>
  </g>
  <rect class="st0" x="361" y="0" width="30" height="61"/>
  <rect class="st0" x="387.4" y="46" width="127.3" height="30" transform="translate(88.9 336.8) rotate(-45)"/>
  <rect class="st0" x="451" y="121" width="61" height="30"/>
  <rect class="st0" x="121" y="0" width="30" height="61"/>
  <rect class="st0" x="46" y="-2.6" width="30" height="127.3" transform="translate(-25.3 61) rotate(-45)"/>
  <rect class="st0" y="121" width="61" height="30"/>
</svg>