<?xml version="1.0" encoding="UTF-8"?>
<svg id="Capa_1" xmlns="http://www.w3.org/2000/svg" version="1.1" viewBox="0 0 512 512">
  <!-- Generator: Adobe Illustrator 29.5.1, SVG Export Plug-In . SVG Version: 2.1.0 Build 141)  -->
  <defs>
    <style>
      .st0 {
        fill: #fdd500;
      }

      .st1 {
        fill: #d8d8d8;
      }
    </style>
  </defs>
  <path class="st1" d="M96.2,96.2c42.7-42.7,99.4-66.2,159.8-66.2s90.8,14,128.3,40l-29,3,3.1,29.8,78-8-8-78-29.8,3.1,2.6,25.3C358.7,15.9,308.2,0,256,0S123.3,26.6,75,75C26.6,123.3,0,187.6,0,256s15.1,100.6,43.6,142.9l24.9-16.8c-.3-.5-.7-1-1-1.5-24.5-37-37.4-80-37.4-124.6s23.5-117.1,66.2-159.8h0Z"/>
  <path class="st1" d="M468.4,113.1l-24.9,16.8c.3.5.7,1,1,1.5,24.5,37,37.4,80,37.4,124.6s-23.5,117.1-66.2,159.8-99.4,66.2-159.8,66.2-90.8-14-128.3-40l29-3-3.1-29.8-78,8,8,78,29.8-3.1-2.6-25.3c42.5,29.3,93,45.1,145.2,45.1s132.7-26.6,181-75c48.4-48.4,75-112.6,75-181s-15.1-100.6-43.6-142.9h.1Z"/>
  <path class="st0" d="M125,287.5l19.4-17.9c14.7-13.5,17.5-22.7,17.5-32.7,0-19.1-16.3-31.3-40-31.3s-34.9,8.5-42.7,21.5l21.6,12.1c4.1-6.6,10.9-10,18.4-10s13.2,4,13.2,10.6-1.2,9-9.4,16.6l-38.5,36v18.2h80.2v-23.1h-39.7,0Z"/>
  <path class="st0" d="M257.3,290.9h15.3v-23.1h-15.3v-17.5h-27.5v17.5h-20.9l41.9-60.2h-30.2l-46.2,64.3v19h54.4v19.7h28.4v-19.7h.1Z"/>
  <path class="st0" d="M299,325.3l48.5-138.6h-24.9l-48.5,138.6h24.9Z"/>
  <path class="st0" d="M372.3,246.6v-15.9h27.1l-34.7,79.9h31.8l36.3-84.7v-18.2h-85.3v39h24.9,0Z"/>
</svg>