<?xml version="1.0" encoding="UTF-8"?>
<svg id="Capa_1" xmlns="http://www.w3.org/2000/svg" version="1.1" viewBox="0 0 512 512">
  <!-- Generator: Adobe Illustrator 29.5.1, SVG Export Plug-In . SVG Version: 2.1.0 Build 141)  -->
  <defs>
    <style>
      .st0 {
        fill: #fdd500;
      }

      .st1 {
        fill: #d8d8d8;
      }
    </style>
  </defs>
  <path class="st1" d="M405,286.8l31.8-31.8c8.5-8.5,13.2-19.8,13.2-31.8s-4.7-23.3-13.2-31.8c-7.9-7.9-18.2-12.5-29.3-13.1-.6-10.7-5-21.2-13.1-29.3-8.1-8.2-18.6-12.5-29.3-13.1-.6-10.6-5-21.2-13.1-29.3s-18.2-12.5-29.3-13.1c-.6-10.7,4.4-11.8-13.1-29.3s-46.1-17.5-63.6,0l-10.7,10.7-10.6-10.7c-8.5-8.5-19.8-13.2-31.8-13.2s-23.3,4.7-31.8,13.2-13.2,19.8-13.2,31.8.4,6.5,1.1,9.7c-7.4,2.1-14.1,6-19.7,11.5-8.5,8.5-13.2,19.8-13.2,31.8s.4,6.5,1.1,9.7c-7.4,2.1-14.1,6-19.7,11.5-8.5,8.5-13.2,19.8-13.2,31.8s.4,6.5,1,9.7c-7.4,2-14.2,6-19.8,11.5-8.5,8.5-13.2,19.8-13.2,31.8s4.7,23.3,13.2,31.8l10.6,10.6c3.7,3.7,7.9,6.6,12.4,8.8L11.3,383.6l128.3,128.4,107.7-108.4c3,.4,6.1.6,9.2.6s7.1-.2,10.7-.8l108.3,108.3,127.2-127.2-97.7-97.8ZM182.3,85.3c2.8-2.8,6.6-4.4,10.6-4.4s3.9.4,5.8,1.1c1.8.8,3.4,1.9,4.8,3.2l42.4,42.4c2.8,2.8,4.4,6.6,4.4,10.6s-1.6,7.8-4.4,10.6c-2.8,2.8-6.6,4.4-10.6,4.4s-7.8-1.6-10.6-4.4l-42.4-42.4c-2.8-2.8-4.4-6.6-4.4-10.6s1.6-7.8,4.4-10.6ZM150.5,138.4c2.8-2.8,6.6-4.4,10.6-4.4s7.8,1.6,10.6,4.4l31.8,31.8c2.8,2.8,4.4,6.6,4.4,10.6s-1.6,7.8-4.4,10.6-6.6,4.4-10.6,4.4-7.8-1.6-10.6-4.4l-31.8-31.8c-2.8-2.8-4.4-6.6-4.4-10.6s1.6-7.8,4.4-10.6ZM118.6,191.4c2.8-2.8,6.6-4.4,10.6-4.4s7.8,1.6,10.6,4.4l21.2,21.2c2.8,2.8,4.4,6.6,4.4,10.6s-1.6,7.8-4.4,10.6c-2.8,2.8-6.6,4.4-10.6,4.4s-7.8-1.6-10.6-4.4l-10.6-10.6-10.6-10.6c-2.8-2.8-4.4-6.6-4.4-10.6s1.6-7.8,4.4-10.6ZM86.8,265.6c-2.8-2.8-4.4-6.6-4.4-10.6s1.6-7.8,4.4-10.6,6.6-4.4,10.6-4.4,7.8,1.6,10.6,4.4l10.6,10.6c2.8,2.8,4.4,6.6,4.4,10.6s-1.6,7.8-4.4,10.6c-2.8,2.8-6.6,4.4-10.6,4.4s-7.8-1.6-10.6-4.4l-10.6-10.6ZM224.7,361.1l-8.3-8.3-21.2,21.2,8.3,8.3c3.9,3.9,8.2,7.3,12.7,10.2l-76.6,77-85.9-85.9,86.1-86.1h0c0,0,0,0,0,0,7.9-7.9,12.5-18.2,13.1-29.3,11.1-.6,21.5-5.2,29.4-13.1,7.9-7.9,12.5-18.2,13.1-29.3,11.1-.6,21.4-5.2,29.3-13.1,7.9-7.9,12.5-18.2,13.1-29.3,11.1-.6,21.4-5.2,29.3-13.1,8.5-8.5,13.2-19.8,13.2-31.8s-4.7-23.3-13.2-31.8l-10.5-10.6,10.7-10.6c5.8-5.8,15.4-5.8,21.2,0,5.5,5.5,5.8,14.3.9,20.2h0c0,0-10.6,10.5-10.6,10.5l21.2,21.2,9.7-9.6h0c2.8-2.7,6.6-4.3,10.6-4.3s7.8,1.6,10.6,4.4c2.8,2.8,4.4,6.6,4.4,10.6s-1.6,7.8-4.4,10.6h0c0,0-10.6,10.6-10.6,10.6l21.2,21.2,10.6-10.6h0c5.8-5.8,15.4-5.8,21.2,0s5.8,15.4,0,21.2h0s-9.6,9.6-9.6,9.6l21.2,21.2,10.5-10.5c2.7-2.3,6.1-3.6,9.7-3.6s7.8,1.6,10.6,4.4c2.8,2.8,4.4,6.6,4.4,10.6s-1.6,7.8-4.4,10.6l-127.3,127.3c-17.5,17.5-46.1,17.5-63.6,0ZM297.9,391.8c4.1-2.7,8-5.9,11.6-9.5l74.2-74.2,76.5,76.6-84.8,84.8-77.6-77.6Z"/>
  <polygon class="st1" points="256.5 404.2 256.5 404.2 256.5 404.2 256.5 404.2"/>
  <rect class="st0" x="361" y="0" width="30" height="61"/>
  <rect class="st0" x="387.3" y="46" width="127.3" height="30" transform="translate(89 336.8) rotate(-45)"/>
  <rect class="st0" x="451" y="121" width="61" height="30"/>
  <rect class="st0" x="121" y="0" width="30" height="61"/>
  <rect class="st0" x="46" y="-2.6" width="30" height="127.3" transform="translate(-25.3 61) rotate(-45)"/>
  <rect class="st0" y="121" width="61" height="30"/>
</svg>