<svg width="25" height="24" viewBox="0 0 25 24" fill="none" xmlns="http://www.w3.org/2000/svg">
<path d="M19.9401 13.0001C19.7201 13.0001 19.4901 12.9301 19.2701 12.8801C18.8246 12.7819 18.3868 12.6516 17.9601 12.4901C17.4962 12.3213 16.9862 12.3301 16.5284 12.5147C16.0706 12.6993 15.6972 13.0467 15.4801 13.4901L15.2601 13.9401C14.2861 13.3983 13.3911 12.7253 12.6001 11.9401C11.8149 11.1491 11.1419 10.2541 10.6001 9.28011L11.0201 9.00011C11.4635 8.78303 11.8109 8.40964 11.9955 7.9518C12.1801 7.49396 12.1889 6.98402 12.0201 6.52011C11.8613 6.09253 11.731 5.65491 11.6301 5.21011C11.5801 4.99011 11.5401 4.76011 11.5101 4.53011C11.3887 3.82573 11.0197 3.18785 10.4697 2.73135C9.91972 2.27485 9.2248 2.02972 8.5101 2.04011H5.5101C5.07913 2.03607 4.65235 2.12493 4.25881 2.30064C3.86527 2.47636 3.51421 2.73481 3.22953 3.05839C2.94485 3.38198 2.73324 3.76311 2.60909 4.17583C2.48494 4.58855 2.45118 5.02317 2.5101 5.45011C3.04284 9.63949 4.95613 13.532 7.94775 16.5127C10.9394 19.4935 14.8388 21.3926 19.0301 21.9101H19.4101C20.1475 21.9112 20.8595 21.6406 21.4101 21.1501C21.7265 20.8672 21.9792 20.5203 22.1516 20.1324C22.3239 19.7446 22.4121 19.3245 22.4101 18.9001V15.9001C22.3979 15.2055 22.1449 14.5367 21.6944 14.0078C21.244 13.4789 20.6239 13.1227 19.9401 13.0001ZM20.4401 19.0001C20.4399 19.1421 20.4095 19.2824 20.3509 19.4117C20.2923 19.5411 20.2068 19.6564 20.1001 19.7501C19.9887 19.8471 19.8581 19.9195 19.7168 19.9626C19.5755 20.0057 19.4267 20.0185 19.2801 20.0001C15.535 19.5199 12.0563 17.8066 9.39282 15.1304C6.7293 12.4542 5.03251 8.96745 4.5701 5.22011C4.55419 5.07363 4.56813 4.92544 4.6111 4.7845C4.65407 4.64356 4.72517 4.5128 4.8201 4.40011C4.91381 4.29344 5.02916 4.20795 5.15848 4.14933C5.2878 4.09071 5.42812 4.06029 5.5701 4.06011H8.5701C8.80265 4.05494 9.02972 4.13099 9.21224 4.27518C9.39476 4.41937 9.52131 4.62268 9.5701 4.85011C9.6101 5.12345 9.6601 5.39345 9.7201 5.66011C9.83562 6.18726 9.98936 6.70529 10.1801 7.21011L8.7801 7.86011C8.6604 7.91503 8.55272 7.99306 8.46326 8.08971C8.37379 8.18636 8.3043 8.29973 8.25877 8.42331C8.21324 8.54689 8.19257 8.67824 8.19795 8.80983C8.20332 8.94142 8.23464 9.07066 8.2901 9.19011C9.7293 12.2729 12.2073 14.7509 15.2901 16.1901C15.5336 16.2901 15.8066 16.2901 16.0501 16.1901C16.1748 16.1455 16.2894 16.0766 16.3873 15.9873C16.4851 15.898 16.5643 15.7902 16.6201 15.6701L17.2401 14.2701C17.7571 14.455 18.2847 14.6086 18.8201 14.7301C19.0868 14.7901 19.3568 14.8401 19.6301 14.8801C19.8575 14.9289 20.0608 15.0554 20.205 15.238C20.3492 15.4205 20.4253 15.6476 20.4201 15.8801L20.4401 19.0001Z" fill="#FFD503"/>
</svg>
