<?xml version="1.0" encoding="UTF-8"?>
<svg id="Laag_2" data-name="Laag 2" xmlns="http://www.w3.org/2000/svg" viewBox="0 0 392.14 109.79">
  <defs>
    <style>
      .cls-1 {
        fill: #00a8ff;
      }

      .cls-2 {
        letter-spacing: .2em;
      }

      .cls-3 {
        fill: #111;
        font-family: MonumentExtended-Ultrabold, 'MonumentExtended Ultrabold';
        font-size: 18px;
        font-weight: 700;
      }

      .cls-4 {
        letter-spacing: .12em;
      }
    </style>
  </defs>
  <g id="Layer_1" data-name="Layer 1">
    <g>
      <text class="cls-3" transform="translate(104.78 105.3)"><tspan class="cls-2" x="0" y="0">CRE</tspan><tspan class="cls-4" x="39.78" y="0">A</tspan><tspan class="cls-2" x="53.01" y="0">TIVE STUDIO</tspan></text>
      <polygon class="cls-1" points="53 0 53 22 40 22 40 25 53 25 53 45 39 45 39 64 0 64 0 0 53 0"/>
      <path class="cls-1" d="M105.17,4.57c4.92,2.86,8.81,6.75,11.67,11.67,2.86,4.92,4.29,10.27,4.29,16.05s-1.43,11.13-4.29,16.05c-2.86,4.92-6.75,8.81-11.67,11.67-4.92,2.86-10.27,4.29-16.05,4.29s-11.13-1.43-16.05-4.29c-4.92-2.86-8.81-6.75-11.67-11.67-2.86-4.92-4.29-10.27-4.29-16.05s1.43-11.13,4.29-16.05c2.86-4.92,6.75-8.81,11.67-11.67,4.92-2.86,10.27-4.29,16.05-4.29s11.13,1.43,16.05,4.29Z"/>
      <polygon class="cls-1" points="184.58 0 164.71 31.95 184.7 64 126 64 126 0 184.58 0"/>
      <path class="cls-1" d="M189,0h64v32.05c0,6.93-2.05,13.23-6.14,18.9-1.94,2.68-4.3,5.05-6.98,6.99-5.66,4.11-11.96,6.16-18.88,6.16-5.79,0-11.14-1.43-16.05-4.3-4.91-2.87-8.79-6.76-11.66-11.68-2.87-4.91-4.3-10.27-4.3-16.07V0Z"/>
      <path class="cls-1" d="M259,0h64v32.14c0,6.93-2.05,13.23-6.14,18.9-1.94,2.68-4.3,5.05-6.98,6.99-5.66,4.11-11.96,6.16-18.88,6.16-5.79,0-11.14-1.43-16.05-4.3-4.91-2.87-8.79-6.76-11.66-11.68-2.87-4.91-4.3-10.27-4.3-16.07V0Z"/>
      <path class="cls-1" d="M391,0v32h-11v.64c3.95.86,6.96,2.7,9.03,5.55,2.07,2.84,3.1,6.07,3.1,9.67,0,2.75-.62,5.36-1.87,7.84-1.25,2.48-3.04,4.48-5.38,6.01-2.34,1.53-5.12,2.29-8.35,2.29h-47.53v-32h13v-.64c-4.48-.85-8-2.64-10.57-5.36-2.57-2.73-3.86-6.12-3.86-10.18,0-2.73.71-5.3,2.13-7.73,1.54-2.62,3.66-4.7,6.37-6.22C338.38.57,341.03,0,343.67,0h47.33Z"/>
    </g>
  </g>
</svg>