<?xml version="1.0" encoding="UTF-8"?>
<svg id="Laag_2" data-name="Laag 2" xmlns="http://www.w3.org/2000/svg" viewBox="0 0 392.14 105.47">
  <defs>
    <style>
      .cls-1 {
        fill: #111;
      }

      .cls-2 {
        fill: #00a8ff;
      }
    </style>
  </defs>
  <g id="Layer_1" data-name="Layer 1">
    <g>
      <g>
        <path class="cls-1" d="M74.59,92.51c5.04,0,7.67,1.76,7.87,5.74h-4.79c-.18-1.19-1.1-1.78-3.08-1.78-2.77,0-3.24,1.17-3.24,2.5s.49,2.54,3.24,2.54c1.98,0,2.9-.61,3.08-1.82h4.79c-.2,4-2.81,5.78-7.87,5.78-5.55,0-7.92-2.11-7.92-6.5s2.38-6.46,7.92-6.46Z"/>
        <path class="cls-1" d="M99.09,101.68l2.23,3.62h-5.55l-1.75-2.95h-2.75v2.95h-4.68v-12.6h9.9c2.86,0,4.83,2.02,4.83,4.83,0,1.84-.85,3.35-2.23,4.16ZM91.27,98.38h4.32c.47,0,1.04,0,1.04-.86s-.58-.86-1.04-.86h-4.32v1.73Z"/>
        <path class="cls-1" d="M110.14,96.29v1.17h8.64v3.06h-8.64v1.17h8.64v3.6h-13.32v-12.6h13.32v3.6h-8.64Z"/>
        <path class="cls-1" d="M134.11,103.03h-5.37l-.86,2.27h-5.15l5.22-12.6h6.95l5.22,12.6h-5.15l-.86-2.27ZM132.89,99.79l-1.46-3.85-1.46,3.85h2.92Z"/>
        <path class="cls-1" d="M159.57,96.65h-5.4v8.64h-4.68v-8.64h-5.4v-3.96h15.48v3.96Z"/>
        <path class="cls-1" d="M168.38,105.29h-4.68v-12.6h4.68v12.6Z"/>
        <path class="cls-1" d="M189.91,92.69l-5.22,12.6h-6.95l-5.22-12.6h5.15l3.55,9.36,3.55-9.36h5.15Z"/>
        <path class="cls-1" d="M198.73,96.29v1.17h8.64v3.06h-8.64v1.17h8.64v3.6h-13.32v-12.6h13.32v3.6h-8.64Z"/>
        <path class="cls-1" d="M226.81,100.85c0,.61.58,1.03,3.55,1.03,2.77,0,3.19-.18,3.19-.65,0-.54-.41-.61-3.37-.7-5.69-.18-7.87-1.12-7.87-4.05,0-2.77,2.72-3.96,7.69-3.96s7.69,1.19,7.69,4.41h-4.68c0-.67-1.08-.81-3.37-.81s-2.65.11-2.65.59.45.47,3.19.58c4.97.2,8.05.54,8.05,3.83,0,3.48-2.88,4.36-8.05,4.36s-8.05-.88-8.05-4.63h4.68Z"/>
        <path class="cls-1" d="M257.66,96.65h-5.4v8.64h-4.68v-8.64h-5.4v-3.96h15.48v3.96Z"/>
        <path class="cls-1" d="M269.72,105.47c-5.55,0-7.92-2.11-7.92-6.5v-6.28h4.68v6.28c0,1.35.49,2.54,3.24,2.54s3.24-1.21,3.24-2.54v-6.28h4.68v6.28c0,4.38-2.39,6.5-7.92,6.5Z"/>
        <path class="cls-1" d="M297.23,98.99c0,4.29-2.86,6.3-5.91,6.3h-9.36v-12.6h9.36c3.04,0,5.91,2.02,5.91,6.3ZM292.55,98.99c0-2.34-1.66-2.34-2.67-2.34h-3.24v4.68h3.24c1.01,0,2.67,0,2.67-2.34Z"/>
        <path class="cls-1" d="M306.05,105.29h-4.68v-12.6h4.68v12.6Z"/>
        <path class="cls-1" d="M310.18,98.97c0-4.38,2.38-6.46,7.92-6.46s7.92,2.11,7.92,6.46-2.39,6.5-7.92,6.5-7.92-2.11-7.92-6.5ZM321.35,98.97c0-1.31-.47-2.5-3.24-2.5s-3.24,1.17-3.24,2.5.49,2.54,3.24,2.54,3.24-1.21,3.24-2.54Z"/>
      </g>
      <polygon class="cls-2" points="53 0 53 22 40 22 40 25 53 25 53 45 39 45 39 64 0 64 0 0 53 0"/>
      <path class="cls-2" d="M105.17,4.57c4.92,2.86,8.81,6.75,11.67,11.67,2.86,4.92,4.29,10.27,4.29,16.05s-1.43,11.13-4.29,16.05c-2.86,4.92-6.75,8.81-11.67,11.67-4.92,2.86-10.27,4.29-16.05,4.29s-11.13-1.43-16.05-4.29c-4.92-2.86-8.81-6.75-11.67-11.67-2.86-4.92-4.29-10.27-4.29-16.05s1.43-11.13,4.29-16.05c2.86-4.92,6.75-8.81,11.67-11.67,4.92-2.86,10.27-4.29,16.05-4.29s11.13,1.43,16.05,4.29Z"/>
      <polygon class="cls-2" points="184.58 0 164.71 31.95 184.7 64 126 64 126 0 184.58 0"/>
      <path class="cls-2" d="M189,0h64v32.05c0,6.93-2.05,13.23-6.14,18.9-1.94,2.68-4.3,5.05-6.98,6.99-5.66,4.11-11.96,6.16-18.88,6.16-5.79,0-11.14-1.43-16.05-4.3-4.91-2.87-8.79-6.76-11.66-11.68-2.87-4.91-4.3-10.27-4.3-16.07V0Z"/>
      <path class="cls-2" d="M259,0h64v32.14c0,6.93-2.05,13.23-6.14,18.9-1.94,2.68-4.3,5.05-6.98,6.99-5.66,4.11-11.96,6.16-18.88,6.16-5.79,0-11.14-1.43-16.05-4.3-4.91-2.87-8.79-6.76-11.66-11.68-2.87-4.91-4.3-10.27-4.3-16.07V0Z"/>
      <path class="cls-2" d="M391,0v32h-11v.64c3.95.86,6.96,2.7,9.03,5.55,2.07,2.84,3.1,6.07,3.1,9.67,0,2.75-.62,5.36-1.87,7.84-1.25,2.48-3.04,4.48-5.38,6.01-2.34,1.53-5.12,2.29-8.35,2.29h-47.53v-32h13v-.64c-4.48-.85-8-2.64-10.57-5.36-2.57-2.73-3.86-6.12-3.86-10.18,0-2.73.71-5.3,2.13-7.73,1.54-2.62,3.66-4.7,6.37-6.22C338.38.57,341.03,0,343.67,0h47.33Z"/>
    </g>
  </g>
</svg>