<?xml version="1.0" encoding="UTF-8"?>
<svg width="200px" height="200px" viewBox="0 0 200 200" version="1.1" xmlns="http://www.w3.org/2000/svg" xmlns:xlink="http://www.w3.org/1999/xlink">
    <title>Amazon Logo</title>
    <g stroke="none" stroke-width="1" fill="none" fill-rule="evenodd">
        <path d="M148.571,85.7143 C148.571,91.4286 147.143,95.7143 144.286,98.5714 C141.429,101.429 137.857,102.857 133.571,102.857 C129.286,102.857 125.714,101.429 122.857,98.5714 C120,95.7143 118.571,91.4286 118.571,85.7143 C118.571,80 120,75.7143 122.857,72.8571 C125.714,70 129.286,68.5714 133.571,68.5714 C137.857,68.5714 141.429,70 144.286,72.8571 C147.143,75.7143 148.571,80 148.571,85.7143 Z M162.857,85.7143 C162.857,76.4286 160,68.5714 154.286,62.8571 C148.571,57.1429 140.714,54.2857 131.429,54.2857 C122.143,54.2857 114.286,57.1429 108.571,62.8571 C102.857,68.5714 100,76.4286 100,85.7143 C100,95 102.857,102.857 108.571,108.571 C114.286,114.286 122.143,117.143 131.429,117.143 C140.714,117.143 148.571,114.286 154.286,108.571 C160,102.857 162.857,95 162.857,85.7143 Z M81.4286,85.7143 C81.4286,91.4286 80,95.7143 77.1429,98.5714 C74.2857,101.429 70.7143,102.857 66.4286,102.857 C62.1429,102.857 58.5714,101.429 55.7143,98.5714 C52.8571,95.7143 51.4286,91.4286 51.4286,85.7143 C51.4286,80 52.8571,75.7143 55.7143,72.8571 C58.5714,70 62.1429,68.5714 66.4286,68.5714 C70.7143,68.5714 74.2857,70 77.1429,72.8571 C80,75.7143 81.4286,80 81.4286,85.7143 Z M95.7143,85.7143 C95.7143,76.4286 92.8571,68.5714 87.1429,62.8571 C81.4286,57.1429 73.5714,54.2857 64.2857,54.2857 C55,54.2857 47.1429,57.1429 41.4286,62.8571 C35.7143,68.5714 32.8571,76.4286 32.8571,85.7143 C32.8571,95 35.7143,102.857 41.4286,108.571 C47.1429,114.286 55,117.143 64.2857,117.143 C73.5714,117.143 81.4286,114.286 87.1429,108.571 C92.8571,102.857 95.7143,95 95.7143,85.7143 Z M167.143,145.714 C167.143,141.429 165.714,137.857 162.857,135 C160,132.143 156.429,130.714 152.143,130.714 C147.857,130.714 144.286,132.143 141.429,135 C138.571,137.857 137.143,141.429 137.143,145.714 C137.143,150 138.571,153.571 141.429,156.429 C144.286,159.286 147.857,160.714 152.143,160.714 C156.429,160.714 160,159.286 162.857,156.429 C165.714,153.571 167.143,150 167.143,145.714 Z" fill="#FFFFFF" fill-rule="nonzero"></path>
    </g>
</svg>
