<?xml version="1.0" encoding="UTF-8"?>
<svg width="200px" height="200px" viewBox="0 0 200 200" version="1.1" xmlns="http://www.w3.org/2000/svg" xmlns:xlink="http://www.w3.org/1999/xlink">
    <title>Shopify Logo</title>
    <g stroke="none" stroke-width="1" fill="none" fill-rule="evenodd">
        <path d="M142.667,50 C142.667,50 141.333,48 138.667,48 C136,48 120,48 120,48 C120,48 114.667,42.6666667 112,40 C109.333,37.3333333 106.667,38 105.333,38.6666667 C105.333,38.6666667 102,40 97.3333333,41.3333333 C96,36.6666667 93.3333333,32 88,32 C88,32 85.3333333,32 82.6666667,36.6666667 C78.6666667,34.6666667 74.6666667,33.3333333 70.6666667,32.6666667 C61.3333333,30.6666667 54.6666667,34.6666667 50.6666667,41.3333333 C45.3333333,50 46.6666667,64 54.6666667,82.6666667 L60,97.3333333 C60,97.3333333 68,128.666667 82.6666667,144.666667 C93.3333333,157.333333 105.333,162.666667 114.667,162.666667 C120,162.666667 124,160.666667 126.667,157.333333 C132,150.666667 130.667,140 124,134.666667 C120,132 114.667,130.666667 109.333,132 C106.667,132.666667 104,134.666667 102.667,136.666667 C102.667,136.666667 101.333,134.666667 98.6666667,130.666667 C96,126.666667 93.3333333,121.333333 93.3333333,113.333333 C93.3333333,109.333333 93.3333333,104.666667 94.6666667,100.666667 C94.6666667,100.666667 96,100.666667 97.3333333,100.666667 C102.667,100.666667 112,101.333333 120,104.666667 C134.667,110.666667 141.333,122.666667 140,136.666667 C138.667,148.666667 130.667,157.333333 120,162 C114.667,164 109.333,164.666667 104,164.666667 C85.3333333,164.666667 69.3333333,152 58.6666667,134.666667 C50.6666667,122 44,106.666667 40,90.6666667 C38.6666667,86.6666667 37.3333333,82.6666667 36.6666667,78.6666667 C34.6666667,70.6666667 34.6666667,62.6666667 36,56 C38.6666667,44 45.3333333,34.6666667 56,30 C62.6666667,26.6666667 70.6666667,26.6666667 78.6666667,28.6666667 C84,30 89.3333333,32.6666667 94.6666667,36 C97.3333333,32 101.333,30 106.667,30 C114.667,30 120,34.6666667 122.667,40.6666667 C125.333,40 128,38.6666667 130.667,38 C134.667,36.6666667 138.667,36.6666667 141.333,38 C146.667,40.6666667 146.667,46.6666667 142.667,50 Z" fill="#FFFFFF" fill-rule="nonzero"></path>
    </g>
</svg>
